HIERARCHY
ROOT Hips
{
    OFFSET 0.000000 0.000000 0.000000
    CHANNELS 6 Xposition Yposition Zposition Zrotation Xrotation Yrotation
    JOINT Spine
    {
        OFFSET -0.000000 7.236184 0.000000
        CHANNELS 3 Zrotation Xrotation Yrotation
        JOINT Spine1
        {
            OFFSET -0.000000 20.420147 0.000000
            CHANNELS 3 Zrotation Xrotation Yrotation
            JOINT Neck
            {
                OFFSET -0.000000 20.336288 1.848754
                CHANNELS 3 Zrotation Xrotation Yrotation
                JOINT Head
                {
                    OFFSET -0.000000 12.354461 -1.764923
                    CHANNELS 3 Zrotation Xrotation Yrotation
                    End Site
                    {
                        OFFSET -0.000000 22.061537 0.000000
                    }
                }
            }
            JOINT LeftShoulder
            {
                OFFSET 3.573296 18.396038 -0.314103
                CHANNELS 3 Zrotation Xrotation Yrotation
                JOINT LeftArm
                {
                    OFFSET 10.880760 0.000000 0.000000
                    CHANNELS 3 Zrotation Xrotation Yrotation
                    JOINT LeftForeArm
                    {
                        OFFSET 27.185530 0.000000 0.000000
                        CHANNELS 3 Zrotation Xrotation Yrotation
                        JOINT LeftHand
                        {
                            OFFSET 27.825975 0.000000 0.000000
                            CHANNELS 3 Zrotation Xrotation Yrotation
                            End Site
                            {
                                OFFSET 13.236923 0.000000 0.000000
                            }
                        }
                    }
                }
            }
            JOINT RightShoulder
            {
                OFFSET -3.474926 18.396038 -0.314103
                CHANNELS 3 Zrotation Xrotation Yrotation
                JOINT RightArm
                {
                    OFFSET -10.880760 0.000000 0.000000
                    CHANNELS 3 Zrotation Xrotation Yrotation
                    JOINT RightForeArm
                    {
                        OFFSET -27.185530 0.000000 0.000000
                        CHANNELS 3 Zrotation Xrotation Yrotation
                        JOINT RightHand
                        {
                            OFFSET -27.825975 0.000000 0.000000
                            CHANNELS 3 Zrotation Xrotation Yrotation
                            End Site
                            {
                                OFFSET -13.236923 0.000000 0.000000
                            }
                        }
                    }
                }
            }
        }
    }
    JOINT LeftUpLeg
    {
        OFFSET 8.824615 0.000000 0.000000
        CHANNELS 3 Zrotation Xrotation Yrotation
        JOINT LeftLeg
        {
            OFFSET -0.000000 -35.111282 0.000000
            CHANNELS 3 Zrotation Xrotation Yrotation
            JOINT LeftFoot
            {
                OFFSET -0.000000 -42.324711 0.000000
                CHANNELS 3 Zrotation Xrotation Yrotation
                JOINT LeftToeBase
                {
                    OFFSET -0.000000 -5.735999 13.236923
                    CHANNELS 3 Zrotation Xrotation Yrotation
                    End Site
                    {
                        OFFSET -0.000000 0.000000 3.529846
                    }
                }
            }
        }
    }
    JOINT RightUpLeg
    {
        OFFSET -8.824615 0.000000 0.000000
        CHANNELS 3 Zrotation Xrotation Yrotation
        JOINT RightLeg
        {
            OFFSET -0.000000 -35.111282 0.000000
            CHANNELS 3 Zrotation Xrotation Yrotation
            JOINT RightFoot
            {
                OFFSET -0.000000 -42.324711 0.000000
                CHANNELS 3 Zrotation Xrotation Yrotation
                JOINT RightToeBase
                {
                    OFFSET -0.000000 -5.735999 13.236923
                    CHANNELS 3 Zrotation Xrotation Yrotation
                    End Site
                    {
                        OFFSET -0.000000 0.000000 3.529846
                    }
                }
            }
        }
    }
}
MOTION
Frames:    4
Frame Time:    0.008333
2.383700    81.414398    103.596840    -1.680084    -6.562406    -176.693436    -2.705281    -11.286290    0.298956    1.178518    8.107978    0.482748    2.846976    6.031796    -2.359074    5.349130    -2.969911    -1.824887    -1.464335    19.606787    -4.904676    -35.280159    46.651264    -47.063580    0.472037    -5.207401    -17.548454    19.491512    -4.793443    1.994992    8.314340    20.536526    -2.686171    33.411701    46.594730    41.870712    -1.870944    -7.562697    18.516844    -14.592567    -6.750362    -4.010581    8.733103    -9.381702    -0.307724    -0.739660    11.519687    -3.195923    -9.955549    -8.045066    -10.728598    -0.581914    0.065698    0.644955    -14.104875    -1.341302    -0.568996    3.120342    0.929777    -0.638755    8.685622    -4.331248    -8.766172    -0.955347    -0.353891    1.033782    
2.384281    81.413429    103.597130    -1.671643    -6.560024    -176.693848    -2.710416    -11.275948    0.303513    1.172553    8.122893    0.487863    2.842541    6.034151    -2.380686    5.363875    -3.003169    -1.842912    -1.467494    19.614124    -4.904466    -35.352406    46.588333    -47.015743    0.475369    -5.197078    -17.551086    19.491913    -4.771900    2.057379    8.318630    20.532934    -2.685406    33.389893    46.589386    41.911045    -1.871967    -7.566833    18.512215    -14.593819    -6.755402    -4.002419    8.727925    -9.422227    -0.308679    -0.715745    11.591992    -3.171808    -9.964215    -8.066719    -10.757733    -0.582683    0.072988    0.645798    -14.096481    -1.339160    -0.561201    3.121196    0.928332    -0.641032    8.685025    -4.332352    -8.769068    -0.955563    -0.355108    1.034017    
2.384901    81.412491    103.597427    -1.663193    -6.557823    -176.694183    -2.715519    -11.265710    0.308116    1.166586    8.137824    0.492948    2.838110    6.036479    -2.402356    5.378655    -3.037443    -1.860939    -1.470504    19.621452    -4.904321    -35.425060    46.524921    -46.967861    0.478614    -5.187455    -17.553221    19.492146    -4.751266    2.118733    8.322957    20.529280    -2.684613    33.368328    46.583645    41.951241    -1.872660    -7.570896    18.507542    -14.595420    -6.760438    -3.994097    8.722754    -9.462914    -0.309611    -0.691838    11.664215    -3.148072    -9.972673    -8.088448    -10.786596    -0.583474    0.080714    0.646666    -14.088055    -1.337170    -0.553462    3.122073    0.926884    -0.643210    8.684322    -4.333481    -8.772101    -0.955651    -0.356103    1.034114    
2.385598    81.411552    103.597710    -1.654768    -6.555742    -176.694321    -2.720617    -11.255311    0.312597    1.160769    8.152525    0.498044    2.833568    6.038389    -2.424064    5.393364    -3.073110    -1.878949    -1.473722    19.628685    -4.903908    -35.497913    46.460754    -46.919838    0.481448    -5.179131    -17.554674    19.491693    -4.732359    2.177952    8.327222    20.525810    -2.684000    33.346928    46.577030    41.991386    -1.872949    -7.574765    18.502848    -14.597018    -6.765375    -3.985512    8.717647    -9.503568    -0.310370    -0.667904    11.736121    -3.124576    -9.981142    -8.110105    -10.815567    -0.584152    0.088299    0.647408    -14.079614    -1.335217    -0.545943    3.122902    0.925372    -0.645654    8.683787    -4.334548    -8.774784    -0.955759    -0.357191    1.034232    
